<svg xmlns="http://www.w3.org/2000/svg" width="80.31" height="52.44" viewBox="0 0 80.31 52.44">
  <g id="Group_2" data-name="Group 2" transform="translate(-222.249 -180.252)">
    <path id="Path_1" data-name="Path 1" d="M267.039,195.867c.226.249.443.506.677.746,6.22,6.349,7.355,16.987,2.341,24.33-6.132,8.983-14.708,12.865-25.522,11.473-12.81-1.649-24.955-13.908-21.774-30.923,2.8-15.006,16.917-23.862,31.74-20.545,6.918,1.548,14.312,7.332,16.269,12.728-8.354-5.207-16.858-3.062-20.693,5.349a79.368,79.368,0,0,0-2.771,7.846c-.861,2.578-1.658,5.177-2.719,8.511-1.794-5.8-3.31-10.768-4.869-15.719-1.441-4.576-5.748-6.494-10.187-4.4,3.487,8.839,7,17.684,10.456,26.55.834,2.133,2.064,3.529,4.537,3.469,2.495-.06,3.947-1.389,4.8-3.623,2.48-6.465,4.947-12.936,7.513-19.368a22.184,22.184,0,0,1,2.632-4.979c1.672-2.259,3.95-3.741,6.936-3.328,4.986.69,9.056,7.429,7.5,12.484C273.251,201.827,271.659,197.879,267.039,195.867Z" transform="translate(0 -0.001)" fill="#fff"/>
    <path id="Path_2" data-name="Path 2" d="M267.039,195.866c4.621,2.015,6.213,5.96,6.866,10.6,1.56-5.056-2.509-11.794-7.5-12.484-2.987-.417-5.264,1.069-6.936,3.328a22.181,22.181,0,0,0-2.632,4.979c-2.566,6.431-5.033,12.9-7.513,19.368-.856,2.231-2.308,3.563-4.8,3.623-2.473.059-3.705-1.337-4.537-3.47-3.457-8.867-6.97-17.711-10.456-26.55,4.439-2.09,8.746-.172,10.187,4.4,1.559,4.952,3.074,9.917,4.869,15.719,1.062-3.335,1.858-5.932,2.719-8.51a79.376,79.376,0,0,1,2.771-7.846c3.836-8.406,12.339-10.554,20.693-5.349-1.958-5.4-9.352-11.18-16.269-12.728-14.824-3.317-28.935,5.537-31.74,20.545-3.18,17.015,8.962,29.274,21.774,30.923,10.814,1.389,19.389-2.49,25.522-11.473,5.014-7.343,3.878-17.981-2.341-24.33C267.482,196.373,267.265,196.115,267.039,195.866Z" transform="translate(0)" fill="#fff"/>
    <g id="Group_1" data-name="Group 1" transform="translate(278.211 197.32)">
      <path id="Path_3" data-name="Path 3" d="M326.8,238.995v-2.982l2.4-.511V224.051h-2.743v-3.493H329.2v-2.045a6.253,6.253,0,0,1,1.781-4.78,6.982,6.982,0,0,1,4.984-1.678,11.821,11.821,0,0,1,1.687.128,13.144,13.144,0,0,1,1.516.3l-.427,3.7a5.682,5.682,0,0,0-.937-.179,9.7,9.7,0,0,0-1.073-.06,2.537,2.537,0,0,0-1.926.665,2.669,2.669,0,0,0-.63,1.908v2.043h4.175v3.492h-4.175V235.5l3.255.511v2.982Z" transform="translate(-326.458 -212.041)" fill="#fff"/>
      <path id="Path_4" data-name="Path 4" d="M358.62,242.8a5.3,5.3,0,0,1-3.96-1.414,6.2,6.2,0,0,1-1.389-4.482v-9.407H350.73V224h2.539v-4.516h4.958V224h3.389v3.492h-3.391v9.389a2.145,2.145,0,0,0,.452,1.534,1.652,1.652,0,0,0,1.236.46,7.014,7.014,0,0,0,.895-.06q.468-.06.809-.128l.426,3.6a14.066,14.066,0,0,1-1.662.367,11.068,11.068,0,0,1-1.761.145Z" transform="translate(-337.695 -215.485)" fill="#fff"/>
    </g>
  </g>
</svg>
